<svg xmlns="http://www.w3.org/2000/svg" viewBox="0 0 400 460"><defs><linearGradient id="gold" x2=".2" y2="1"><stop stop-color="#fff6bb"/><stop offset=".4" stop-color="#ffd26b"/><stop offset="1" stop-color="#c46d26"/></linearGradient><linearGradient id="pink" x2="1" y2="1"><stop stop-color="#ffa2eb"/><stop offset=".4" stop-color="#d535a0"/><stop offset="1" stop-color="#512986"/></linearGradient><radialGradient id="ball" cx=".3" cy=".2" r=".85"><stop stop-color="#ffffff"/><stop offset=".6" stop-color="#cbd8e7"/><stop offset="1" stop-color="#637898"/></radialGradient><linearGradient id="blue" x2=".6" y2="1"><stop stop-color="#73e9ff"/><stop offset=".4" stop-color="#3579e2"/><stop offset="1" stop-color="#262765"/></linearGradient></defs><defs><linearGradient id="scene" x2=".6" y2="1"><stop stop-color="#064b55"/><stop offset="1" stop-color="#91d97f"/></linearGradient></defs><rect width="400" height="460" fill="url(#scene)"/><circle cx="300" cy="100" r="110" fill="#ffffff09"/><circle cx="290" cy="110" r="140" fill="none" stroke="#ffffff12"/><path d="M0 330 60 285 110 320 160 275 210 320 270 290 340 330 400 270v190H0Z" fill="#10183435"/><circle cx="31" cy="17" r="1" fill="#ffefb0" opacity=".5"/><circle cx="104" cy="64" r="2" fill="#ffefb0" opacity=".5"/><circle cx="177" cy="111" r="1" fill="#ffefb0" opacity=".5"/><circle cx="250" cy="158" r="2" fill="#ffefb0" opacity=".5"/><circle cx="323" cy="205" r="1" fill="#ffefb0" opacity=".5"/><circle cx="396" cy="252" r="2" fill="#ffefb0" opacity=".5"/><circle cx="69" cy="299" r="1" fill="#ffefb0" opacity=".5"/><circle cx="142" cy="16" r="2" fill="#ffefb0" opacity=".5"/><circle cx="215" cy="63" r="1" fill="#ffefb0" opacity=".5"/><circle cx="288" cy="110" r="2" fill="#ffefb0" opacity=".5"/><circle cx="361" cy="157" r="1" fill="#ffefb0" opacity=".5"/><circle cx="34" cy="204" r="2" fill="#ffefb0" opacity=".5"/><circle cx="107" cy="251" r="1" fill="#ffefb0" opacity=".5"/><circle cx="180" cy="298" r="2" fill="#ffefb0" opacity=".5"/><circle cx="253" cy="15" r="1" fill="#ffefb0" opacity=".5"/><circle cx="326" cy="62" r="2" fill="#ffefb0" opacity=".5"/><circle cx="399" cy="109" r="1" fill="#ffefb0" opacity=".5"/><circle cx="72" cy="156" r="2" fill="#ffefb0" opacity=".5"/><circle cx="145" cy="203" r="1" fill="#ffefb0" opacity=".5"/><circle cx="218" cy="250" r="2" fill="#ffefb0" opacity=".5"/><circle cx="200" cy="160" r="98" fill="#dafa9430"/><path d="m30 305 170-223 170 223Z" fill="#b5cc86"/><path d="m200 82 35 223h135Z" fill="#65846d"/><path d="M115 305v-40h22v-39h22v-39h22v-39h38v39h22v39h22v39h22v40" fill="#e0dbaa"/><path d="M187 149v154h26V149Z" fill="#52776a"/><path d="M0 0q90 10 50 120Q40 30 0 25M400 20q-110 20-67 130 15-80 67-90" fill="#174838"/><path d="M0 353h400v107H0Z" fill="#0a142340"/><text x="200" y="393" text-anchor="middle" font-family="Arial" font-size="29" font-weight="900" letter-spacing="2" fill="#fff5dc">TEMPLO</text><text x="200" y="418" text-anchor="middle" font-family="Arial" font-size="8" letter-spacing="4" fill="#ffebc9b0">BRAVO COLLECTION</text></svg>