<svg xmlns="http://www.w3.org/2000/svg" viewBox="0 0 400 460"><defs><linearGradient id="gold" x2=".2" y2="1"><stop stop-color="#fff6bb"/><stop offset=".4" stop-color="#ffd26b"/><stop offset="1" stop-color="#c46d26"/></linearGradient><linearGradient id="pink" x2="1" y2="1"><stop stop-color="#ffa2eb"/><stop offset=".4" stop-color="#d535a0"/><stop offset="1" stop-color="#512986"/></linearGradient><radialGradient id="ball" cx=".3" cy=".2" r=".85"><stop stop-color="#ffffff"/><stop offset=".6" stop-color="#cbd8e7"/><stop offset="1" stop-color="#637898"/></radialGradient><linearGradient id="blue" x2=".6" y2="1"><stop stop-color="#73e9ff"/><stop offset=".4" stop-color="#3579e2"/><stop offset="1" stop-color="#262765"/></linearGradient></defs><defs><linearGradient id="scene" x2=".6" y2="1"><stop stop-color="#073a32"/><stop offset="1" stop-color="#468e5a"/></linearGradient></defs><rect width="400" height="460" fill="url(#scene)"/><circle cx="300" cy="100" r="110" fill="#ffffff09"/><circle cx="290" cy="110" r="140" fill="none" stroke="#ffffff12"/><path d="M0 330 60 285 110 320 160 275 210 320 270 290 340 330 400 270v190H0Z" fill="#10183435"/><circle cx="31" cy="17" r="1" fill="#ffefb0" opacity=".5"/><circle cx="104" cy="64" r="2" fill="#ffefb0" opacity=".5"/><circle cx="177" cy="111" r="1" fill="#ffefb0" opacity=".5"/><circle cx="250" cy="158" r="2" fill="#ffefb0" opacity=".5"/><circle cx="323" cy="205" r="1" fill="#ffefb0" opacity=".5"/><circle cx="396" cy="252" r="2" fill="#ffefb0" opacity=".5"/><circle cx="69" cy="299" r="1" fill="#ffefb0" opacity=".5"/><circle cx="142" cy="16" r="2" fill="#ffefb0" opacity=".5"/><circle cx="215" cy="63" r="1" fill="#ffefb0" opacity=".5"/><circle cx="288" cy="110" r="2" fill="#ffefb0" opacity=".5"/><circle cx="361" cy="157" r="1" fill="#ffefb0" opacity=".5"/><circle cx="34" cy="204" r="2" fill="#ffefb0" opacity=".5"/><circle cx="107" cy="251" r="1" fill="#ffefb0" opacity=".5"/><circle cx="180" cy="298" r="2" fill="#ffefb0" opacity=".5"/><circle cx="253" cy="15" r="1" fill="#ffefb0" opacity=".5"/><circle cx="326" cy="62" r="2" fill="#ffefb0" opacity=".5"/><circle cx="399" cy="109" r="1" fill="#ffefb0" opacity=".5"/><circle cx="72" cy="156" r="2" fill="#ffefb0" opacity=".5"/><circle cx="145" cy="203" r="1" fill="#ffefb0" opacity=".5"/><circle cx="218" cy="250" r="2" fill="#ffefb0" opacity=".5"/><path d="M0 333h400M40 393l55-160M360 393l-55-160" fill="none" stroke="#c6ffc742" stroke-width="3"/><g transform="translate(39 25) scale(.9)"><circle cx="185" cy="180" r="123" fill="url(#ball)"/><g fill="#20324b" stroke="#20324b" stroke-width="9"><path d="m185 117 52 38-20 61h-64l-20-61Z"/><path d="M185 57v60M65 145l68 10M114 281l39-65M256 281l-39-65M305 145l-68 10" fill="none"/></g><path d="M95 92 65 145 72 223l42 58 71 22 71-22 42-58 7-78-30-53-90-35Z" fill="none" stroke="#20324b" stroke-width="9"/></g><path d="M0 353h400v107H0Z" fill="#0a142340"/><text x="200" y="393" text-anchor="middle" font-family="Arial" font-size="29" font-weight="900" letter-spacing="2" fill="#fff5dc">FÚTBOL</text><text x="200" y="418" text-anchor="middle" font-family="Arial" font-size="8" letter-spacing="4" fill="#ffebc9b0">BRAVO COLLECTION</text></svg>