<svg xmlns="http://www.w3.org/2000/svg" width="300" height="360" viewBox="0 0 300 360"><defs><linearGradient id="bg" x2=".8" y2="1"><stop stop-color="#ffb329"/><stop offset="1" stop-color="#e64167"/></linearGradient><linearGradient id="gold" x2="0" y2="1"><stop stop-color="#fff6cd"/><stop offset=".5" stop-color="#ffe9a1"/><stop offset="1" stop-color="#d89228"/></linearGradient><radialGradient id="shine"><stop stop-color="#ffffff" stop-opacity=".36"/><stop offset="1" stop-color="#ffffff" stop-opacity="0"/></radialGradient></defs><rect width="300" height="360" fill="url(#bg)"/><circle cx="150" cy="130" r="180" fill="url(#shine)"/><g fill="none" stroke="#fff" opacity=".12"><circle cx="150" cy="165" r="128"/><circle cx="150" cy="165" r="144"/><path d="M0 0l300 360M300 0L0 360M150 0v360M0 165h300"/></g><ellipse cx="150" cy="270" rx="88" ry="16" fill="#17112a" opacity=".22"/><path d="M100 163q38-59 92-85-26 49 9 114" fill="none" stroke="#285b30" stroke-width="10"/><path d="M188 81q-73-35-66 17 42 18 66-17Z" fill="#96ef67"/><circle cx="98" cy="197" r="44" fill="#bf184e"/><circle cx="196" cy="218" r="43" fill="#e22960"/><ellipse cx="86" cy="177" rx="9" ry="16" fill="#ff9cbd" transform="rotate(30 86 177)"/><ellipse cx="182" cy="197" rx="8" ry="14" fill="#ffa6c5" transform="rotate(30 182 197)"/><path d="m35 85 4 11 11 4-11 4-4 11-4-11-11-4 11-4Z M264 233l3 8 8 3-8 3-3 8-3-8-8-3 8-3Z" fill="#ffedbb"/><text x="150" y="316" text-anchor="middle" font-family="Arial,sans-serif" font-weight="900" letter-spacing="2" font-size="22" fill="#fff9ec">FRUTAS</text><text x="150" y="337" text-anchor="middle" font-family="Arial,sans-serif" letter-spacing="4" font-size="8" fill="#ffffffbb">NEXORA COLLECTION</text></svg>