<svg xmlns="http://www.w3.org/2000/svg" width="300" height="360" viewBox="0 0 300 360"><defs><linearGradient id="bg" x2=".8" y2="1"><stop stop-color="#f7c44c"/><stop offset="1" stop-color="#b75516"/></linearGradient><linearGradient id="gold" x2="0" y2="1"><stop stop-color="#fff6cd"/><stop offset=".5" stop-color="#ffe9a1"/><stop offset="1" stop-color="#d89228"/></linearGradient><radialGradient id="shine"><stop stop-color="#ffffff" stop-opacity=".36"/><stop offset="1" stop-color="#ffffff" stop-opacity="0"/></radialGradient></defs><rect width="300" height="360" fill="url(#bg)"/><circle cx="150" cy="130" r="180" fill="url(#shine)"/><g fill="none" stroke="#fff" opacity=".12"><circle cx="150" cy="165" r="128"/><circle cx="150" cy="165" r="144"/><path d="M0 0l300 360M300 0L0 360M150 0v360M0 165h300"/></g><ellipse cx="150" cy="270" rx="88" ry="16" fill="#17112a" opacity=".22"/><text x="150" y="215" text-anchor="middle" font-family="Georgia,serif" font-weight="bold" font-size="170" fill="url(#gold)" stroke="#ffc96b" stroke-width="1">◆</text><path d="m35 85 4 11 11 4-11 4-4 11-4-11-11-4 11-4Z M264 233l3 8 8 3-8 3-3 8-3-8-8-3 8-3Z" fill="#ffedbb"/><text x="150" y="316" text-anchor="middle" font-family="Arial,sans-serif" font-weight="900" letter-spacing="2" font-size="22" fill="#fff9ec">TESOROS</text><text x="150" y="337" text-anchor="middle" font-family="Arial,sans-serif" letter-spacing="4" font-size="8" fill="#ffffffbb">NEXORA COLLECTION</text></svg>